<svg xmlns="http://www.w3.org/2000/svg" xmlns:xlink="http://www.w3.org/1999/xlink" width="507" height="219" viewBox="0 0 507 219">
    <defs>
        <path id="b" d="M78.926 0H391.88c22.091 0 40 17.909 40 40v39.156c0 21.268-16.643 38.818-37.881 39.944L0 140 41.334 26.33A40 40 0 0 1 78.926 0z"/>
        <filter id="a" width="130.1%" height="192.9%" x="-15.1%" y="-39.3%" filterUnits="objectBoundingBox">
            <feOffset dy="10" in="SourceAlpha" result="shadowOffsetOuter1"/>
            <feGaussianBlur in="shadowOffsetOuter1" result="shadowBlurOuter1" stdDeviation="20"/>
            <feColorMatrix in="shadowBlurOuter1" values="0 0 0 0 0 0 0 0 0 0 0 0 0 0 0 0 0 0 0.1 0"/>
        </filter>
        <linearGradient id="c" x1="91.488%" x2="-38.352%" y1="4.948%" y2="71.907%">
            <stop offset="0%" stop-color="#00A0FF"/>
            <stop offset="1%" stop-color="#00A1FF"/>
            <stop offset="26%" stop-color="#00BEFF"/>
            <stop offset="51%" stop-color="#00D2FF"/>
            <stop offset="76%" stop-color="#00DFFF"/>
            <stop offset="100%" stop-color="#00E3FF"/>
        </linearGradient>
        <linearGradient id="d" x1="107.685%" x2="-130.64%" y1="50%" y2="50%">
            <stop offset="0%" stop-color="#FFE000"/>
            <stop offset="41%" stop-color="#FFBD00"/>
            <stop offset="78%" stop-color="#FFA500"/>
            <stop offset="100%" stop-color="#FF9C00"/>
        </linearGradient>
        <linearGradient id="e" x1="86.219%" x2="-50.15%" y1="17.877%" y2="194.703%">
            <stop offset="0%" stop-color="#FF3A44"/>
            <stop offset="100%" stop-color="#C31162"/>
        </linearGradient>
        <linearGradient id="f" x1="-18.754%" x2="42.121%" y1="-54.052%" y2="24.917%">
            <stop offset="0%" stop-color="#32A071"/>
            <stop offset="7%" stop-color="#2DA771"/>
            <stop offset="48%" stop-color="#15CF74"/>
            <stop offset="80%" stop-color="#06E775"/>
            <stop offset="100%" stop-color="#00F076"/>
        </linearGradient>
    </defs>
    <g fill="none" fill-rule="evenodd">
        <g transform="matrix(-1 0 0 1 471.879 30)">
            <use fill="#000" filter="url(#a)" xlink:href="#b"/>
            <use fill="#FFF" xlink:href="#b"/>
        </g>
        <g transform="translate(248 74)">
            <rect width="169" height="50" fill="#000" fill-rule="nonzero" rx="5"/>
            <path fill="#FFF" d="M56.07 10c2.63 0 4.532 1.838 4.532 4.375 0 2.525-1.915 4.375-4.57 4.375h-3.554V10h3.592zm.038 7.425c1.703 0 3.004-1.262 3.004-3.038 0-1.787-1.339-3.062-3.067-3.062h-2.09v6.1h2.153zm6.697-8.1c.476 0 .84.363.84.875 0 .5-.364.863-.84.863-.475 0-.838-.363-.838-.863 0-.512.363-.875.838-.875zm-.713 2.775h1.427v6.65h-1.427V12.1zm7.348 1.675c-.588-.363-1.327-.588-1.915-.588-.563 0-.977.188-.977.663 0 1.225 3.543.563 3.53 2.975 0 1.363-1.214 1.975-2.553 1.975-.977 0-2.016-.325-2.68-.925l.514-1.025c.576.512 1.502.825 2.228.825.614 0 1.09-.213 1.09-.713 0-1.362-3.506-.6-3.493-3 0-1.35 1.177-1.925 2.454-1.925.838 0 1.727.25 2.328.675l-.526 1.063zm5.921-1.725c1.89 0 3.18 1.375 3.18 3.4 0 1.988-1.252 3.35-3.154 3.35-1.065 0-1.866-.425-2.354-1.2v3.575h-1.44V12.1h1.44v1.15c.488-.775 1.29-1.2 2.328-1.2zm-.3 5.525c1.19 0 2.028-.9 2.028-2.175 0-1.238-.839-2.15-2.028-2.15-1.19 0-2.028.9-2.028 2.15 0 1.287.839 2.175 2.028 2.175zm7.837-5.525c2.053 0 3.467 1.362 3.467 3.375 0 2-1.414 3.375-3.467 3.375-2.066 0-3.48-1.375-3.48-3.375 0-2.013 1.414-3.375 3.48-3.375zm0 1.237c-1.202 0-2.04.875-2.04 2.15 0 1.288.838 2.163 2.04 2.163 1.189 0 2.028-.875 2.028-2.163 0-1.274-.84-2.15-2.028-2.15zm8.863-1.237c1.552 0 2.478.975 2.478 2.563v4.137H92.8v-3.738c0-1-.6-1.612-1.602-1.612-1.101.012-1.79.775-1.89 1.813v3.537h-1.44V12.1h1.44v1.275c.476-.925 1.327-1.325 2.454-1.325zm5.12-2.725c.476 0 .839.363.839.875 0 .5-.363.863-.84.863-.475 0-.838-.363-.838-.863 0-.512.363-.875.839-.875zm-.714 2.775h1.427v6.65h-1.427V12.1zm7.386-.05c1.89 0 3.18 1.375 3.18 3.4 0 1.988-1.252 3.35-3.155 3.35-1.064 0-1.865-.425-2.353-1.2v1.15h-1.44V9.475h1.44v3.775c.488-.775 1.29-1.2 2.328-1.2zm-.3 5.525c1.189 0 2.028-.9 2.028-2.175 0-1.238-.839-2.15-2.028-2.15-1.19 0-2.028.9-2.028 2.15 0 1.287.838 2.175 2.028 2.175zm5.045-8.1h1.44v9.275h-1.44V9.475zm6.372 2.575c2.34 0 3.292 1.525 3.117 3.925h-5.033c.226 1.025 1.014 1.662 2.066 1.662.726 0 1.39-.274 1.878-.774l.763.812c-.65.712-1.602 1.125-2.754 1.125-2.053 0-3.405-1.363-3.405-3.363 0-2.012 1.39-3.374 3.368-3.387zm-1.94 2.875h3.805c-.05-1.075-.764-1.725-1.853-1.725-1.051 0-1.803.663-1.953 1.725zm13.582-1.15c-.589-.363-1.327-.588-1.915-.588-.564 0-.977.188-.977.663 0 1.225 3.543.563 3.53 2.975 0 1.363-1.214 1.975-2.553 1.975-.977 0-2.016-.325-2.68-.925l.514-1.025c.576.512 1.502.825 2.228.825.614 0 1.09-.213 1.09-.713 0-1.362-3.506-.6-3.493-3 0-1.35 1.176-1.925 2.453-1.925.839 0 1.728.25 2.329.675l-.526 1.063zm6.697-1.675h1.44v6.65h-1.44v-1.3c-.45.925-1.29 1.338-2.378 1.35-1.528 0-2.441-.975-2.441-2.563V12.1h1.44v3.738c0 1 .588 1.612 1.552 1.612 1.151-.025 1.827-.912 1.827-2.075V12.1zm5.008 1.325c.45-.9 1.252-1.375 2.303-1.375v1.375c-1.34-.075-2.19.712-2.303 1.85v3.475h-1.44V12.1h1.44v1.325z"/>
            <path fill="#FFF" fill-rule="nonzero" d="M85.301 27.188a5.316 5.316 0 0 0-5.295 5.329 5.316 5.316 0 0 0 5.329 5.295 5.316 5.316 0 0 0 5.312-5.312 5.233 5.233 0 0 0-1.545-3.788 5.25 5.25 0 0 0-3.8-1.524zm0 8.537a3.23 3.23 0 0 1-3.14-1.827 3.221 3.221 0 0 1 .55-3.587 3.233 3.233 0 0 1 3.543-.806 3.225 3.225 0 0 1 2.052 2.995 3.072 3.072 0 0 1-.821 2.245 3.082 3.082 0 0 1-2.184.98zm-11.655-8.538a5.316 5.316 0 0 0-5.307 5.321 5.316 5.316 0 0 0 5.324 5.304A5.316 5.316 0 0 0 78.98 32.5a5.233 5.233 0 0 0-1.544-3.788 5.25 5.25 0 0 0-3.801-1.524h.012zm0 8.538a3.23 3.23 0 0 1-3.148-1.817 3.221 3.221 0 0 1 .541-3.59 3.233 3.233 0 0 1 3.544-.813 3.225 3.225 0 0 1 2.055 2.995 3.072 3.072 0 0 1-.82 2.245 3.082 3.082 0 0 1-2.184.98h.012zm-13.883-6.9v2.25h5.408a4.71 4.71 0 0 1-1.251 2.838 5.538 5.538 0 0 1-4.17 1.65 6.004 6.004 0 0 1-6.008-6c0-3.314 2.69-6 6.009-6a5.763 5.763 0 0 1 4.093 1.612l1.59-1.588a7.88 7.88 0 0 0-5.67-2.337 8.278 8.278 0 0 0-7.434 4.033 8.252 8.252 0 0 0 0 8.447 8.278 8.278 0 0 0 7.433 4.033 7.517 7.517 0 0 0 5.771-2.313 7.494 7.494 0 0 0 1.953-5.275 7.327 7.327 0 0 0-.125-1.413l-7.599.063zm56.722 1.75a5.007 5.007 0 0 0-4.557-3.387 5.01 5.01 0 0 0-3.656 1.573 4.996 4.996 0 0 0-1.351 3.739 5.196 5.196 0 0 0 1.51 3.777 5.212 5.212 0 0 0 3.772 1.535 5.297 5.297 0 0 0 4.432-2.35l-1.815-1.25a3.043 3.043 0 0 1-2.617 1.475 2.704 2.704 0 0 1-2.578-1.612l7.123-2.938-.263-.562zm-7.26 1.775a2.91 2.91 0 0 1 .736-2.133 2.919 2.919 0 0 1 2.042-.967 2.066 2.066 0 0 1 1.978 1.125l-4.757 1.975zm-5.784 5.15h2.34V21.875h-2.34V37.5zm-3.831-9.125h-.088a3.758 3.758 0 0 0-2.804-1.25 5.328 5.328 0 0 0-5.075 5.319 5.328 5.328 0 0 0 5.075 5.319c1.074.018 2.1-.44 2.804-1.25h.075v.762c0 2.038-1.089 3.125-2.841 3.125a2.942 2.942 0 0 1-2.68-1.887l-2.04.85a5.07 5.07 0 0 0 4.72 3.137c2.741 0 5.007-1.612 5.007-5.538V27.5H99.61v.875zm-2.68 7.35a3.24 3.24 0 0 1-2.957-3.225 3.24 3.24 0 0 1 2.958-3.225 3.006 3.006 0 0 1 2.102 1.014c.535.608.801 1.405.74 2.211a2.972 2.972 0 0 1-.737 2.222c-.539.61-1.304.972-2.118 1.003h.013zm30.521-13.85h-5.596V37.5h2.341v-5.925h3.268a4.872 4.872 0 0 0 4.506-2.319 4.856 4.856 0 0 0 0-5.062 4.872 4.872 0 0 0-4.506-2.319h-.013zm0 7.5h-3.267V24.05h3.317c1.483 0 2.685 1.2 2.685 2.681a2.683 2.683 0 0 1-2.685 2.681l-.05-.037zm14.434-2.25a4.383 4.383 0 0 0-4.169 2.387l2.078.863a2.217 2.217 0 0 1 2.128-1.15 2.256 2.256 0 0 1 2.504 2.012v.163a5.176 5.176 0 0 0-2.441-.6c-2.24 0-4.507 1.25-4.507 3.512a3.61 3.61 0 0 0 1.214 2.538c.73.647 1.693.972 2.667.9 1.2.086 2.353-.49 3.005-1.5h.075v1.25h2.253v-6.012c0-2.738-2.078-4.325-4.745-4.325l-.062-.038zm-.288 8.563c-.764 0-1.828-.388-1.828-1.326 0-1.25 1.327-1.662 2.504-1.662a4.161 4.161 0 0 1 2.128.525 2.828 2.828 0 0 1-2.741 2.5l-.063-.038zm13.307-8.188l-2.679 6.775h-.075l-2.779-6.775h-2.504l4.169 9.475-2.379 5.262h2.442l6.409-14.737h-2.604zm-21.043 10h2.34V21.875h-2.34V37.5z"/>
            <g fill-rule="nonzero">
                <path fill="url(#c)" d="M1.803.675a2.498 2.498 0 0 0-.576 1.75v27.65a2.498 2.498 0 0 0 .576 1.75l.087.088L17.4 16.437v-.362L1.89.588l-.087.087z" transform="translate(11.267 8.75)"/>
                <path fill="url(#d)" d="M22.533 21.6l-5.132-5.163v-.362l5.132-5.175.113.063 6.147 3.487c1.752.988 1.752 2.613 0 3.613l-6.122 3.475-.138.062z" transform="translate(11.267 8.75)"/>
                <path fill="url(#e)" d="M22.684 21.525L17.4 16.25 1.803 31.825c.737.647 1.83.678 2.604.075l18.29-10.375" transform="translate(11.267 8.75)"/>
                <path fill="url(#f)" d="M22.684 10.975L4.394.6A2.043 2.043 0 0 0 1.79.675L17.4 16.25l5.284-5.275z" transform="translate(11.267 8.75)"/>
                <path fill="#000" d="M33.8 30.163L15.66 40.474a2.093 2.093 0 0 1-2.503 0l-.088.087.088.088a2.08 2.08 0 0 0 2.504 0l18.29-10.375-.151-.112z" opacity=".2"/>
                <path fill="#000" d="M13.07 40.4a2.498 2.498 0 0 1-.577-1.75v.188a2.498 2.498 0 0 0 .576 1.75l.088-.088-.088-.1zm26.99-13.775l-6.26 3.538.113.112 6.146-3.475a2.188 2.188 0 0 0 1.252-1.8 2.325 2.325 0 0 1-1.252 1.625z" opacity=".12"/>
                <path fill="#FFF" d="M15.66 9.525l24.4 13.85c.646.319 1.108.919 1.251 1.625a2.188 2.188 0 0 0-1.252-1.8L15.661 9.35c-1.753-.987-3.18-.162-3.18 1.838v.187c.038-2.013 1.44-2.837 3.18-1.85z" opacity=".25"/>
            </g>
        </g>
        <path fill="#000" fill-rule="nonzero" d="M88.556 122.906c-.38 0-.752-.005-1.13-.013a15.859 15.859 0 0 1-2.337-.204 7.355 7.355 0 0 1-2.07-.685 6.757 6.757 0 0 1-1.747-1.27 6.651 6.651 0 0 1-1.276-1.746 7.152 7.152 0 0 1-.678-2.072 15.517 15.517 0 0 1-.208-2.343c-.008-.264-.019-1.142-.019-1.142V84.555s.011-.864.019-1.118c.01-.784.078-1.566.207-2.34.119-.723.348-1.424.679-2.077a6.717 6.717 0 0 1 1.269-1.748 6.957 6.957 0 0 1 1.753-1.278 7.279 7.279 0 0 1 2.066-.68 15.732 15.732 0 0 1 2.345-.205l1.128-.015h128.46l1.142.016c.778.009 1.555.077 2.323.203.726.123 1.43.354 2.088.685a6.992 6.992 0 0 1 3.02 3.025c.325.649.55 1.344.668 2.06.13.78.202 1.57.217 2.36.004.354.004.734.004 1.112.01.47.01.915.01 1.365v26.161c0 .454 0 .897-.01 1.344 0 .407 0 .779-.005 1.162-.014.777-.086 1.551-.214 2.317a7.174 7.174 0 0 1-.675 2.088 6.85 6.85 0 0 1-1.269 1.732 6.766 6.766 0 0 1-1.75 1.278 7.327 7.327 0 0 1-2.084.687c-.773.126-1.554.194-2.337.204-.366.008-.75.013-1.122.013l-1.355.003-127.112-.003z"/>
        <path fill="#FFF" d="M127.737 84c2.626 0 4.526 1.838 4.526 4.375 0 2.525-1.913 4.375-4.563 4.375h-3.55V84h3.587zm.038 7.425c1.7 0 3-1.262 3-3.038 0-1.787-1.337-3.062-3.063-3.062h-2.087v6.1h2.15zm6.688-8.1c.475 0 .837.362.837.875 0 .5-.362.862-.837.862s-.838-.362-.838-.862c0-.513.362-.875.837-.875zm-.713 2.775h1.425v6.65h-1.425V86.1zm7.337 1.675c-.587-.363-1.324-.588-1.912-.588-.563 0-.975.188-.975.663 0 1.225 3.538.562 3.525 2.975 0 1.362-1.212 1.975-2.55 1.975-.975 0-2.012-.325-2.675-.925l.513-1.025c.574.512 1.5.825 2.224.825.613 0 1.088-.213 1.088-.713 0-1.362-3.5-.6-3.488-3 0-1.35 1.175-1.925 2.45-1.925.838 0 1.725.25 2.325.675l-.525 1.063zM147 86.05c1.888 0 3.175 1.375 3.175 3.4 0 1.987-1.25 3.35-3.15 3.35-1.062 0-1.862-.425-2.35-1.2v3.575h-1.438V86.1h1.438v1.15c.487-.775 1.288-1.2 2.325-1.2zm-.3 5.525c1.188 0 2.025-.9 2.025-2.175 0-1.238-.838-2.15-2.025-2.15-1.188 0-2.025.9-2.025 2.15 0 1.287.837 2.175 2.025 2.175zm7.825-5.525c2.05 0 3.462 1.362 3.462 3.375 0 2-1.412 3.375-3.462 3.375-2.063 0-3.475-1.375-3.475-3.375 0-2.013 1.412-3.375 3.475-3.375zm0 1.237c-1.2 0-2.038.875-2.038 2.15 0 1.288.838 2.163 2.038 2.163 1.187 0 2.025-.875 2.025-2.163 0-1.274-.838-2.15-2.025-2.15zm8.85-1.237c1.55 0 2.475.975 2.475 2.562v4.138h-1.438v-3.738c0-1-.6-1.612-1.6-1.612-1.1.012-1.787.775-1.887 1.812v3.538h-1.438V86.1h1.438v1.275c.475-.925 1.325-1.325 2.45-1.325zm5.112-2.725c.475 0 .838.362.838.875 0 .5-.363.862-.838.862s-.837-.362-.837-.862c0-.513.362-.875.837-.875zm-.712 2.775h1.425v6.65h-1.425V86.1zm7.375-.05c1.887 0 3.175 1.375 3.175 3.4 0 1.987-1.25 3.35-3.15 3.35-1.063 0-1.863-.425-2.35-1.2v1.15h-1.438v-9.275h1.438v3.775c.487-.775 1.287-1.2 2.325-1.2zm-.3 5.525c1.187 0 2.025-.9 2.025-2.175 0-1.238-.838-2.15-2.025-2.15-1.188 0-2.025.9-2.025 2.15 0 1.287.837 2.175 2.025 2.175zm5.037-8.1h1.438v9.275h-1.438v-9.275zm6.363 2.575c2.338 0 3.287 1.525 3.112 3.925h-5.024c.225 1.025 1.012 1.662 2.062 1.662.725 0 1.388-.275 1.875-.775l.763.813c-.65.712-1.6 1.125-2.75 1.125-2.05 0-3.4-1.363-3.4-3.363 0-2.012 1.387-3.375 3.362-3.387zm-1.938 2.875h3.8c-.05-1.075-.762-1.725-1.85-1.725-1.05 0-1.8.662-1.95 1.725zm13.563-1.15c-.588-.363-1.325-.588-1.912-.588-.563 0-.975.188-.975.663 0 1.225 3.537.562 3.525 2.975 0 1.362-1.213 1.975-2.55 1.975-.975 0-2.013-.325-2.675-.925l.512-1.025c.575.512 1.5.825 2.225.825.613 0 1.088-.213 1.088-.713 0-1.362-3.5-.6-3.488-3 0-1.35 1.175-1.925 2.45-1.925.837 0 1.725.25 2.325.675l-.525 1.063zm6.688-1.675H206v6.65h-1.438v-1.3c-.45.925-1.287 1.338-2.375 1.35-1.525 0-2.437-.975-2.437-2.562V86.1h1.438v3.738c0 1 .587 1.612 1.55 1.612 1.15-.025 1.825-.912 1.825-2.075V86.1zm5 1.325c.45-.9 1.25-1.375 2.3-1.375v1.375c-1.338-.075-2.188.712-2.3 1.85v3.475h-1.438V86.1h1.438v1.325z"/>
        <path fill="#FFF" fill-rule="nonzero" d="M130.878 107.925h-5.917l-1.42 4.195h-2.507l5.604-15.522h2.604l5.604 15.522h-2.548l-1.42-4.195zm-5.304-1.936h4.69l-2.312-6.81h-.065l-2.313 6.81zm21.376.473c0 3.517-1.883 5.777-4.723 5.777a3.837 3.837 0 0 1-3.561-1.98h-.054v5.605h-2.323v-15.061h2.249v1.882h.042a4.015 4.015 0 0 1 3.604-2c2.872 0 4.766 2.27 4.766 5.777zm-2.388 0c0-2.291-1.184-3.797-2.99-3.797-1.776 0-2.97 1.538-2.97 3.797 0 2.28 1.194 3.808 2.97 3.808 1.806 0 2.99-1.496 2.99-3.808zm14.844 0c0 3.517-1.883 5.777-4.723 5.777a3.837 3.837 0 0 1-3.561-1.98h-.054v5.605h-2.323v-15.061h2.249v1.882h.042a4.015 4.015 0 0 1 3.604-2c2.872 0 4.766 2.27 4.766 5.777zm-2.388 0c0-2.291-1.184-3.797-2.99-3.797-1.776 0-2.97 1.538-2.97 3.797 0 2.28 1.194 3.808 2.97 3.808 1.806 0 2.99-1.496 2.99-3.808zm10.62 1.333c.172 1.54 1.668 2.55 3.711 2.55 1.958 0 3.367-1.01 3.367-2.399 0-1.204-.85-1.926-2.862-2.42l-2.011-.485c-2.85-.688-4.174-2.021-4.174-4.184 0-2.679 2.334-4.518 5.648-4.518 3.28 0 5.529 1.84 5.605 4.518h-2.345c-.14-1.55-1.421-2.484-3.293-2.484-1.871 0-3.152.946-3.152 2.322 0 1.098.818 1.744 2.819 2.238l1.71.42c3.185.753 4.508 2.032 4.508 4.303 0 2.904-2.313 4.723-5.992 4.723-3.443 0-5.767-1.776-5.917-4.584h2.378zm14.545-9.67v2.678h2.152v1.84h-2.152v6.239c0 .969.43 1.42 1.377 1.42a7.26 7.26 0 0 0 .764-.053v1.828a6.38 6.38 0 0 1-1.29.108c-2.292 0-3.185-.86-3.185-3.056v-6.486h-1.646v-1.84h1.646v-2.678h2.334zm3.398 8.337c0-3.56 2.097-5.798 5.368-5.798 3.28 0 5.368 2.237 5.368 5.798 0 3.57-2.076 5.799-5.368 5.799-3.291 0-5.368-2.228-5.368-5.799zm8.37 0c0-2.442-1.12-3.884-3.002-3.884-1.883 0-3 1.453-3 3.884 0 2.453 1.117 3.883 3 3.883 1.882 0 3.001-1.43 3.001-3.883zm4.282-5.659h2.215v1.926h.054a2.7 2.7 0 0 1 2.722-2.044c.268-.001.535.028.796.086v2.173a3.247 3.247 0 0 0-1.044-.14 2.34 2.34 0 0 0-2.42 2.603v6.713h-2.323v-11.317zm16.497 7.993c-.312 2.055-2.313 3.464-4.873 3.464-3.292 0-5.335-2.205-5.335-5.744 0-3.55 2.054-5.852 5.238-5.852 3.13 0 5.1 2.15 5.1 5.582v.796h-7.993v.14a2.947 2.947 0 0 0 3.044 3.206 2.56 2.56 0 0 0 2.614-1.592h2.205zm-7.852-3.378h5.658a2.722 2.722 0 0 0-2.776-2.872 2.865 2.865 0 0 0-2.882 2.872zM108.961 99.376a6.186 6.186 0 0 1 2.946-5.19 6.332 6.332 0 0 0-4.99-2.697c-2.098-.22-4.133 1.256-5.203 1.256-1.09 0-2.737-1.234-4.51-1.198a6.644 6.644 0 0 0-5.592 3.41c-2.417 4.185-.614 10.337 1.702 13.72 1.159 1.657 2.513 3.507 4.284 3.442 1.734-.072 2.382-1.106 4.475-1.106 2.073 0 2.68 1.106 4.488 1.064 1.861-.03 3.033-1.664 4.151-3.337a13.702 13.702 0 0 0 1.898-3.865 5.978 5.978 0 0 1-3.649-5.5zm-3.414-10.112a6.09 6.09 0 0 0 1.393-4.364 6.197 6.197 0 0 0-4.01 2.075 5.795 5.795 0 0 0-1.43 4.202 5.124 5.124 0 0 0 4.047-1.913z"/>
    </g>
</svg>
